<svg width="139" height="27" viewBox="0 0 139 27" fill="none" xmlns="http://www.w3.org/2000/svg">
<path d="M33.0275 20.7237V6.02315C33.0275 5.9363 33.0856 5.87839 33.1727 5.87839H36.471C36.5436 5.87839 36.6017 5.90734 36.6307 5.9942L37.0228 6.89172C37.0664 6.97858 37.139 7.00753 37.2261 6.94963C38.475 5.96525 39.929 5.58887 41.4974 5.58887C45.304 5.58887 47.5857 7.53049 47.5857 11.3106V20.7255C47.5857 20.8124 47.5276 20.8703 47.4405 20.8703H43.5178C43.4306 20.8703 43.3725 20.8124 43.3725 20.7255V12.0923C43.3725 10.1507 42.2834 9.07944 40.3211 9.07944C38.3588 9.07944 37.2697 10.2375 37.2697 12.2081V20.7255C37.2697 20.8124 37.2116 20.8703 37.1245 20.8703H33.1727C33.0856 20.8703 33.0275 20.8124 33.0275 20.7255V20.7237Z" fill="#161616"/>
<path d="M49.0651 13.3807C49.0651 8.51487 52.1891 5.58887 56.7508 5.58887C60.9204 5.58887 63.9864 8.03715 64.0009 13.2504L63.9573 14.3795C63.9573 14.4809 63.8992 14.5243 63.8121 14.5243H53.3363C53.2347 14.5243 53.1911 14.5822 53.2056 14.6835C53.6122 16.8857 55.0082 17.8556 56.9105 17.8556C58.0578 17.8556 59.0471 17.3779 59.5699 16.3646C59.6134 16.2922 59.6715 16.2632 59.7441 16.2632H63.6088C63.7104 16.2632 63.754 16.3212 63.725 16.437C62.8972 19.7538 60.1943 21.158 56.867 21.158C52.102 21.158 49.0651 18.232 49.0651 13.3807ZM53.4525 11.5856H59.7587C59.8458 11.5856 59.9184 11.5277 59.8894 11.4264C59.6134 9.68744 58.4226 8.8623 56.8234 8.8623C54.9483 8.8623 53.7865 9.77429 53.3218 11.4264C53.2928 11.5277 53.3508 11.5856 53.4525 11.5856Z" fill="#161616"/>
<path d="M65.4368 20.7237V6.02315C65.4368 5.9363 65.4948 5.87839 65.582 5.87839H68.8803C68.9529 5.87839 69.0255 5.90734 69.0545 5.97972L69.5338 6.96411C69.5773 7.05096 69.6499 7.07991 69.7371 7.00753C70.7391 6.12449 72.0914 5.58887 73.776 5.58887C75.8544 5.58887 77.4228 6.18239 78.3086 7.41468C78.3667 7.50153 78.4393 7.50153 78.5119 7.42915C79.7027 6.21315 81.2875 5.58887 83.1753 5.58887C86.7205 5.58887 88.6392 7.23915 88.6392 10.9342V20.7255C88.6392 20.8124 88.5811 20.8703 88.494 20.8703H84.5712C84.4841 20.8703 84.426 20.8124 84.426 20.7255V11.6725C84.426 9.91906 83.4676 9.07944 81.7957 9.07944C80.1239 9.07944 79.1509 10.1072 79.1509 11.8896V20.7255C79.1509 20.8124 79.0928 20.8703 79.0057 20.8703H75.083C74.9958 20.8703 74.9377 20.8124 74.9377 20.7255V11.8172C74.9377 10.0638 73.9648 9.07944 72.2929 9.07944C70.6211 9.07944 69.6772 10.0493 69.6772 11.8896V20.7255C69.6772 20.8124 69.6191 20.8703 69.5319 20.8703H65.5802C65.493 20.8703 65.4349 20.8124 65.4349 20.7255H65.4368V20.7237Z" fill="#161616"/>
<path d="M90.1187 13.3662C90.1187 8.63068 93.1846 5.58887 97.9351 5.58887C102.686 5.58887 105.722 8.63068 105.722 13.3662C105.722 18.1017 102.671 21.158 97.9351 21.158C93.1991 21.158 90.1187 18.0872 90.1187 13.3662ZM101.526 13.3662C101.526 10.7587 100.117 9.07944 97.9369 9.07944C95.7568 9.07944 94.3336 10.7587 94.3336 13.3662C94.3336 15.9737 95.7568 17.6674 97.9369 17.6674C100.117 17.6674 101.526 15.9882 101.526 13.3662Z" fill="#161616"/>
<path d="M105.648 25.9387V22.6508C105.648 22.5639 105.706 22.506 105.793 22.506H108.816C110.618 22.506 110.662 21.4927 110.007 19.7103L105.241 6.03753C105.212 5.9362 105.256 5.8783 105.358 5.8783H109.6C109.687 5.8783 109.731 5.92172 109.76 5.99411L112.622 15.7854C112.666 15.9302 112.753 15.9302 112.797 15.7854L115.645 5.99411C115.674 5.92172 115.717 5.8783 115.804 5.8783H120.047C120.148 5.8783 120.192 5.9362 120.163 6.03753L114.074 23.6496C113.465 25.3886 112.433 26.0834 110.776 26.0834H105.793C105.706 26.0834 105.648 26.0255 105.648 25.9387Z" fill="#161616"/>
<path d="M119.782 16.3212C119.782 13.5544 121.802 11.5856 125.652 11.5856H129.981C130.069 11.5856 130.127 11.5277 130.127 11.4409V11.2237C130.127 9.7182 129.154 8.8623 127.293 8.8623C125.739 8.8623 124.866 9.45582 124.59 10.4402C124.576 10.5271 124.518 10.5705 124.43 10.5705H120.464C120.377 10.5705 120.319 10.5126 120.333 10.4112C120.813 7.45629 123.167 5.58887 127.351 5.58887C131.811 5.58887 134.34 7.83449 134.34 11.3251V16.9889C134.34 17.3797 134.529 17.5679 134.921 17.5679H135.487C135.574 17.5679 135.632 17.6258 135.632 17.7127V20.7255C135.632 20.8124 135.574 20.8703 135.487 20.8703H133.307C132.203 20.8703 131.374 20.5518 130.953 19.8425C130.909 19.7556 130.836 19.7411 130.764 19.8135C129.602 20.8558 127.77 21.1598 126.159 21.1598C122.149 21.1598 119.78 19.3051 119.78 16.323H119.782V16.3212ZM130.199 14.9314V14.6709C130.199 14.584 130.141 14.5261 130.054 14.5261H126.204C124.694 14.5261 124.024 15.1052 124.024 16.1185C124.024 17.2621 124.91 17.9732 126.741 17.9732C128.747 17.9732 130.199 17.1192 130.199 14.9314Z" fill="#161616"/>
<path d="M135.098 5.57032C135.098 4.47375 135.937 3.63232 137.042 3.63232C138.148 3.63232 139 4.47375 139 5.57032C139 6.66689 138.156 7.5219 137.042 7.5219C135.929 7.5219 135.098 6.68047 135.098 5.57032ZM138.709 5.57032C138.709 4.62575 137.984 3.90918 137.042 3.90918C136.1 3.90918 135.376 4.62575 135.376 5.57032C135.376 6.51489 136.095 7.22604 137.042 7.22604C137.99 7.22604 138.709 6.50947 138.709 5.57032ZM136.285 6.57732V4.57418C136.285 4.54704 136.304 4.52804 136.332 4.52804H137.268C137.622 4.52804 137.889 4.79675 137.889 5.15775C137.889 5.38847 137.777 5.57304 137.6 5.68161C137.576 5.70061 137.573 5.71961 137.581 5.74675L137.924 6.56918C137.938 6.60175 137.919 6.62347 137.886 6.62347H137.497C137.472 6.62347 137.456 6.61532 137.445 6.58547L137.14 5.80375C137.132 5.77661 137.113 5.76575 137.089 5.76575H136.773C136.745 5.76575 136.726 5.78475 136.726 5.81189V6.57461C136.726 6.60175 136.707 6.62075 136.68 6.62075H136.326C136.299 6.62075 136.28 6.60175 136.28 6.57461H136.285V6.57732ZM137.44 5.15775C137.44 5.00847 137.342 4.91347 137.165 4.91347H136.775C136.748 4.91347 136.729 4.93247 136.729 4.95961V5.35318C136.729 5.38032 136.748 5.39932 136.775 5.39932H137.165C137.342 5.39932 137.44 5.2989 137.44 5.15775Z" fill="#161616"/>
<path d="M2.35991 5.50131C1.4163 6.43724 1.41453 7.959 2.35285 8.90021L6.47475 13.0274H2.40929C1.07765 13.0274 0 14.1041 0 15.4306C0 16.7571 1.07942 17.8337 2.40929 17.8337H8.17853L5.48175 20.5236C4.53991 21.4631 4.53991 22.9848 5.48175 23.9225C6.4236 24.862 7.94925 24.862 8.88933 23.9225L13.1312 19.6915L13.1523 19.7126V23.7501C13.1523 25.0784 14.2317 26.1533 15.5616 26.1533C16.8915 26.1533 17.9709 25.0766 17.9709 23.7501V19.2482C17.9709 18.2735 17.5846 17.3394 16.895 16.6497L5.76748 5.50835C4.82916 4.56715 3.30351 4.56539 2.35991 5.50131Z" fill="#161616"/>
<mask id="mask0_17_1371" style="mask-type:luminance" maskUnits="userSpaceOnUse" x="8" y="0" width="19" height="22">
<path d="M24.3543 20.5426C25.2933 19.6118 25.295 18.0983 24.3613 17.1623L20.2594 13.0576H24.3051C25.6303 13.0576 26.7027 11.9868 26.7027 10.6676C26.7027 9.34834 25.6285 8.27756 24.3051 8.27756H18.5639L21.2476 5.60236C22.1849 4.66805 22.1849 3.15461 21.2476 2.22205C20.3103 1.28774 18.7921 1.28774 17.8566 2.22205L13.6354 6.42994L13.6143 6.40894V2.39001C13.6143 1.06903 12.5402 0 11.2168 0C9.89338 0 8.81921 1.07078 8.81921 2.39001V6.86735C8.81921 7.83665 9.2036 8.76571 9.88987 9.45157L20.9633 20.5356C21.897 21.4716 23.4152 21.4734 24.3543 20.5426Z" fill="white"/>
</mask>
<g mask="url(#mask0_17_1371)">
<mask id="mask1_17_1371" style="mask-type:luminance" maskUnits="userSpaceOnUse" x="7" y="-1" width="21" height="24">
<path d="M27.5802 -0.874756H7.94153V22.1138H27.5802V-0.874756Z" fill="white"/>
</mask>
<g mask="url(#mask1_17_1371)">
<rect x="7.89246" y="-0.901123" width="19.7141" height="23.0953" fill="url(#paint0_linear_17_1371)"/>
</g>
</g>
<defs>
<linearGradient id="paint0_linear_17_1371" x1="15.8186" y1="-2.71168" x2="35.2866" y2="7.5695" gradientUnits="userSpaceOnUse">
<stop stop-color="#FF7DFF"/>
<stop offset="0.5" stop-color="#9467F1"/>
<stop offset="1" stop-color="#648CFF"/>
</linearGradient>
</defs>
</svg>
