<svg width="260" height="44" viewBox="0 0 260 44" fill="none" xmlns="http://www.w3.org/2000/svg">
<rect x="0.328125" y="2" width="199.672" height="40" rx="20" fill="white"/>
<g clip-path="url(#clip0_12_1799)">
<path d="M23.3281 19V16H20.3281" stroke="#727883" stroke-width="1.66667" stroke-linecap="round" stroke-linejoin="round"/>
<path d="M27.8281 19H18.8281C17.9997 19 17.3281 19.6716 17.3281 20.5V26.5C17.3281 27.3284 17.9997 28 18.8281 28H27.8281C28.6566 28 29.3281 27.3284 29.3281 26.5V20.5C29.3281 19.6716 28.6566 19 27.8281 19Z" stroke="#727883" stroke-width="1.66667" stroke-linecap="round" stroke-linejoin="round"/>
<path d="M15.8281 23.5H17.3281" stroke="#727883" stroke-width="1.66667" stroke-linecap="round" stroke-linejoin="round"/>
<path d="M29.3281 23.5H30.8281" stroke="#727883" stroke-width="1.66667" stroke-linecap="round" stroke-linejoin="round"/>
<path d="M25.5781 22.75V24.25" stroke="#727883" stroke-width="1.66667" stroke-linecap="round" stroke-linejoin="round"/>
<path d="M21.0781 22.75V24.25" stroke="#727883" stroke-width="1.66667" stroke-linecap="round" stroke-linejoin="round"/>
</g>
<path d="M41.4492 27C41.4082 27 41.3809 26.9727 41.3809 26.9316V17.2656C41.3809 17.2246 41.4082 17.1973 41.4492 17.1973H46.8223C46.8633 17.1973 46.8906 17.2246 46.8906 17.2656V18.3936C46.8906 18.4346 46.8633 18.4619 46.8223 18.4619H42.8779C42.8369 18.4619 42.8096 18.4893 42.8096 18.5303V21.4082C42.8096 21.4492 42.8369 21.4766 42.8779 21.4766H46.3096C46.3506 21.4766 46.3779 21.5039 46.3779 21.5449V22.6592C46.3779 22.7002 46.3506 22.7275 46.3096 22.7275H42.8779C42.8369 22.7275 42.8096 22.7549 42.8096 22.7959V26.9316C42.8096 26.9727 42.7822 27 42.7412 27H41.4492ZM48.0065 27C47.9655 27 47.9382 26.9727 47.9382 26.9316V20.1982C47.9382 20.1572 47.9655 20.1299 48.0065 20.1299H49.1139C49.1481 20.1299 49.1823 20.1504 49.196 20.1846L49.4216 20.8271C49.4421 20.8887 49.4763 20.8887 49.5104 20.834C49.7702 20.3623 50.2419 20.1299 50.8845 20.1299H51.7116C51.7526 20.1299 51.78 20.1572 51.78 20.1982V21.292C51.78 21.333 51.7526 21.3604 51.7116 21.3604H50.7136C49.7975 21.3604 49.3122 21.9824 49.3122 23.2334V26.9316C49.3122 26.9727 49.2848 27 49.2438 27H48.0065ZM55.0082 27.1367C53.2377 27.1367 52.1302 26.3369 52.1302 25.0107C52.1302 23.7324 53.1078 22.8711 54.7074 22.8711H57.0726C57.1136 22.8711 57.141 22.8438 57.141 22.8027V22.4404C57.141 21.5654 56.5736 21.0801 55.473 21.0801C54.5433 21.0801 53.9623 21.4561 53.7777 22.1943C53.7709 22.2354 53.7435 22.2559 53.7025 22.2559H52.472C52.431 22.2559 52.4037 22.2285 52.4105 22.1807C52.6429 20.8066 53.7162 19.9932 55.4662 19.9932C57.3119 19.9932 58.474 20.916 58.474 22.5566V25.585C58.474 25.7969 58.5765 25.9062 58.7884 25.9062H59.1029C59.1439 25.9062 59.1713 25.9336 59.1713 25.9746V26.9316C59.1713 26.9727 59.1439 27 59.1029 27H58.2621C57.7152 27 57.3734 26.8154 57.2435 26.4053C57.2298 26.3506 57.2025 26.3369 57.182 26.3643C56.7171 26.8838 55.9994 27.1367 55.0082 27.1367ZM55.138 26.043C56.4574 26.043 57.1683 25.3936 57.1683 24.2041V24.0537C57.1683 24.0127 57.141 23.9854 57.1 23.9854H54.8168C53.9896 23.9854 53.5043 24.3545 53.5043 24.9766C53.5043 25.6328 54.0716 26.043 55.138 26.043ZM62.9532 29.6045C61.1416 29.6045 59.9795 28.8799 59.7608 27.4785C59.7539 27.4307 59.7881 27.4033 59.8291 27.4033H61.1211C61.1621 27.4033 61.1895 27.4238 61.1963 27.4648C61.3741 28.1416 62.003 28.5518 62.9942 28.5518C64.17 28.5518 64.8741 27.8066 64.8741 26.5625V25.9814C64.8741 25.9199 64.833 25.9062 64.792 25.9541C64.3477 26.5215 63.6231 26.8633 62.7618 26.8633C60.8819 26.8633 59.5694 25.5166 59.5694 23.418C59.5694 21.333 60.8819 19.9932 62.7412 19.9932C63.5957 19.9932 64.334 20.3076 64.792 20.8613C64.833 20.9092 64.8672 20.8955 64.8809 20.8408L65.0039 20.1914C65.0108 20.1504 65.0381 20.1299 65.0791 20.1299H66.1661C66.2071 20.1299 66.2344 20.1572 66.2344 20.1982V26.5352C66.2344 28.5039 65.0655 29.6045 62.9532 29.6045ZM62.9463 25.7559C64.1358 25.7559 64.9493 24.8125 64.9493 23.418C64.9493 22.0303 64.1426 21.0938 62.9463 21.0938C61.7159 21.0938 60.875 22.0303 60.875 23.418C60.875 24.8125 61.7227 25.7559 62.9463 25.7559ZM70.6521 27.1367C68.5876 27.1367 67.282 25.7422 67.282 23.5684C67.282 21.3877 68.6696 19.9932 70.6794 19.9932C72.5661 19.9932 73.8855 21.2441 73.8923 23.5205L73.8786 23.917C73.8786 23.9648 73.8513 23.9854 73.8103 23.9854H68.6765C68.6355 23.9854 68.6013 24.0127 68.6081 24.0605C68.7722 25.3457 69.5515 26.043 70.6657 26.043C71.4382 26.043 72.0739 25.7148 72.4021 24.8672C72.4157 24.833 72.4431 24.8125 72.4773 24.8125H73.6872C73.7351 24.8125 73.7624 24.8467 73.7488 24.9014C73.3181 26.4873 72.1286 27.1367 70.6521 27.1367ZM68.6491 22.7959C68.6423 22.8438 68.6628 22.8711 68.7107 22.8711H72.4841C72.5251 22.8711 72.5593 22.8438 72.5525 22.7959C72.4021 21.7021 71.698 21.0801 70.6999 21.0801C69.6062 21.0801 68.8747 21.7295 68.6491 22.7959ZM75.0014 27C74.9604 27 74.933 26.9727 74.933 26.9316V20.1982C74.933 20.1572 74.9604 20.1299 75.0014 20.1299H76.102C76.143 20.1299 76.1703 20.1504 76.1771 20.1914L76.2797 20.6631C76.2934 20.7178 76.3275 20.7314 76.3686 20.6904C76.8812 20.2119 77.5512 19.9932 78.2895 19.9932C80.06 19.9932 81.099 20.9023 81.099 22.584V26.9316C81.099 26.9727 81.0717 27 81.0307 27H79.8002C79.7592 27 79.7318 26.9727 79.7318 26.9316V22.8232C79.7318 21.7432 79.1166 21.1416 78.0229 21.1416C76.9564 21.1416 76.307 21.832 76.307 22.9463V26.9316C76.307 26.9727 76.2797 27 76.2387 27H75.0014Z" fill="black"/>
<rect x="102.328" y="2" width="97.6719" height="40" rx="20" fill="#FAFAFA"/>
<path d="M120.261 27.0026C121.534 27.6553 122.998 27.8321 124.389 27.5012C125.78 27.1702 127.007 26.3532 127.849 25.1974C128.691 24.0417 129.093 22.6231 128.982 21.1974C128.871 19.7717 128.254 18.4326 127.243 17.4214C126.231 16.4102 124.892 15.7935 123.467 15.6822C122.041 15.571 120.622 15.9727 119.467 16.8148C118.311 17.6569 117.494 18.8842 117.163 20.2754C116.832 21.6666 117.009 23.1303 117.661 24.4026L116.328 28.336L120.261 27.0026Z" stroke="#727883" stroke-width="1.8" stroke-linecap="round" stroke-linejoin="round"/>
<path d="M141.867 27.1777C139.249 27.1777 137.492 25.0996 137.492 22.0986C137.492 19.1045 139.249 17.0264 141.867 17.0264C143.979 17.0264 145.634 18.4004 145.976 20.4102C145.982 20.458 145.955 20.4854 145.914 20.4854H144.581C144.54 20.4854 144.513 20.4648 144.506 20.4238C144.212 19.1387 143.173 18.3457 141.867 18.3457C140.069 18.3457 138.907 19.8223 138.907 22.0986C138.907 24.375 140.069 25.8584 141.867 25.8584C143.173 25.8584 144.212 25.0654 144.513 23.7666C144.52 23.7256 144.547 23.7051 144.588 23.7051H145.907C145.948 23.7051 145.976 23.7324 145.969 23.7803C145.627 25.7969 143.979 27.1777 141.867 27.1777ZM147.331 27C147.29 27 147.262 26.9727 147.262 26.9316V17.2656C147.262 17.2246 147.29 17.1973 147.331 17.1973H148.568C148.609 17.1973 148.636 17.2246 148.636 17.2656V20.6904C148.636 20.752 148.677 20.7725 148.718 20.7246C149.129 20.2666 149.799 19.9932 150.503 19.9932C152.259 19.9932 153.257 20.8887 153.257 22.584V26.9316C153.257 26.9727 153.23 27 153.189 27H151.959C151.918 27 151.89 26.9727 151.89 26.9316V22.8232C151.89 21.7432 151.309 21.1416 150.27 21.1416C149.252 21.1416 148.636 21.832 148.636 22.9463V26.9316C148.636 26.9727 148.609 27 148.568 27H147.331ZM157.244 27.1367C155.474 27.1367 154.367 26.3369 154.367 25.0107C154.367 23.7324 155.344 22.8711 156.944 22.8711H159.309C159.35 22.8711 159.377 22.8438 159.377 22.8027V22.4404C159.377 21.5654 158.81 21.0801 157.709 21.0801C156.78 21.0801 156.199 21.4561 156.014 22.1943C156.007 22.2354 155.98 22.2559 155.939 22.2559H154.708C154.667 22.2559 154.64 22.2285 154.647 22.1807C154.879 20.8066 155.952 19.9932 157.702 19.9932C159.548 19.9932 160.71 20.916 160.71 22.5566V25.585C160.71 25.7969 160.813 25.9062 161.025 25.9062H161.339C161.38 25.9062 161.408 25.9336 161.408 25.9746V26.9316C161.408 26.9727 161.38 27 161.339 27H160.498C159.952 27 159.61 26.8154 159.48 26.4053C159.466 26.3506 159.439 26.3369 159.418 26.3643C158.953 26.8838 158.236 27.1367 157.244 27.1367ZM157.374 26.043C158.694 26.043 159.405 25.3936 159.405 24.2041V24.0537C159.405 24.0127 159.377 23.9854 159.336 23.9854H157.053C156.226 23.9854 155.741 24.3545 155.741 24.9766C155.741 25.6328 156.308 26.043 157.374 26.043ZM164.369 27C163.46 27 162.988 26.5557 162.988 25.6191V21.2715C162.988 21.2305 162.961 21.2031 162.92 21.2031H161.642C161.601 21.2031 161.573 21.1758 161.573 21.1348V20.1982C161.573 20.1572 161.601 20.1299 161.642 20.1299H162.359C162.811 20.1299 163.057 19.877 163.057 19.4326V18.1475C163.057 18.1064 163.084 18.0791 163.125 18.0791H164.294C164.335 18.0791 164.362 18.1064 164.362 18.1475V20.0615C164.362 20.1025 164.39 20.1299 164.431 20.1299H165.709C165.75 20.1299 165.777 20.1572 165.777 20.1982V21.1348C165.777 21.1758 165.75 21.2031 165.709 21.2031H164.431C164.39 21.2031 164.362 21.2305 164.362 21.2715V25.2773C164.362 25.6943 164.492 25.8174 164.909 25.8174H165.709C165.75 25.8174 165.777 25.8447 165.777 25.8857V26.9316C165.777 26.9727 165.75 27 165.709 27H164.369ZM170.462 27.1367C169.607 27.1367 168.842 26.8223 168.363 26.2617C168.322 26.2139 168.281 26.2207 168.267 26.2822L168.117 26.9385C168.11 26.9727 168.083 27 168.042 27H166.955C166.914 27 166.886 26.9727 166.886 26.9316V17.2656C166.886 17.2246 166.914 17.1973 166.955 17.1973H168.172C168.213 17.1973 168.24 17.2246 168.24 17.2656V20.7588C168.24 20.8203 168.281 20.834 168.322 20.793C168.814 20.2803 169.58 19.9932 170.421 19.9932C172.335 19.9932 173.681 21.3398 173.681 23.5752C173.681 25.8105 172.328 27.1367 170.462 27.1367ZM170.263 25.9883C171.514 25.9883 172.321 25.0312 172.321 23.5752C172.321 22.0986 171.508 21.1416 170.257 21.1416C168.999 21.1416 168.185 22.0986 168.185 23.5752C168.185 25.0312 169.006 25.9883 170.263 25.9883ZM177.962 27.1367C175.891 27.1367 174.551 25.7354 174.551 23.5547C174.551 21.3877 175.891 19.9932 177.962 19.9932C180.027 19.9932 181.36 21.3877 181.36 23.5547C181.36 25.7354 180.027 27.1367 177.962 27.1367ZM177.962 25.9883C179.2 25.9883 180.006 25.0312 180.006 23.5547C180.006 22.0918 179.2 21.1416 177.962 21.1416C176.718 21.1416 175.912 22.0918 175.912 23.5547C175.912 25.0312 176.718 25.9883 177.962 25.9883ZM184.362 27C183.453 27 182.982 26.5557 182.982 25.6191V21.2715C182.982 21.2305 182.954 21.2031 182.913 21.2031H181.635C181.594 21.2031 181.566 21.1758 181.566 21.1348V20.1982C181.566 20.1572 181.594 20.1299 181.635 20.1299H182.353C182.804 20.1299 183.05 19.877 183.05 19.4326V18.1475C183.05 18.1064 183.077 18.0791 183.118 18.0791H184.287C184.328 18.0791 184.356 18.1064 184.356 18.1475V20.0615C184.356 20.1025 184.383 20.1299 184.424 20.1299H185.702C185.743 20.1299 185.771 20.1572 185.771 20.1982V21.1348C185.771 21.1758 185.743 21.2031 185.702 21.2031H184.424C184.383 21.2031 184.356 21.2305 184.356 21.2715V25.2773C184.356 25.6943 184.485 25.8174 184.902 25.8174H185.702C185.743 25.8174 185.771 25.8447 185.771 25.8857V26.9316C185.771 26.9727 185.743 27 185.702 27H184.362Z" fill="black"/>
<circle cx="238" cy="22" r="22" transform="rotate(-180 238 22)" fill="url(#paint0_linear_12_1799)"/>
<path d="M229.667 21.3333V23.8333" stroke="#F4F5F5" stroke-width="2" stroke-linecap="round" stroke-linejoin="round"/>
<path d="M233 18V27.1667" stroke="#F4F5F5" stroke-width="2" stroke-linecap="round" stroke-linejoin="round"/>
<path d="M236.333 15.5V30.5" stroke="#F4F5F5" stroke-width="2" stroke-linecap="round" stroke-linejoin="round"/>
<path d="M239.667 19.6667V25.5001" stroke="#F4F5F5" stroke-width="2" stroke-linecap="round" stroke-linejoin="round"/>
<path d="M243 17.1667V28.0001" stroke="#F4F5F5" stroke-width="2" stroke-linecap="round" stroke-linejoin="round"/>
<path d="M246.333 21.3333V23.8333" stroke="#F4F5F5" stroke-width="2" stroke-linecap="round" stroke-linejoin="round"/>
<defs>
<linearGradient id="paint0_linear_12_1799" x1="233.69" y1="-3.44938" x2="273.877" y2="21.4135" gradientUnits="userSpaceOnUse">
<stop stop-color="#FF7DFF"/>
<stop offset="0.5" stop-color="#9467F1"/>
<stop offset="1" stop-color="#648CFF"/>
</linearGradient>
<clipPath id="clip0_12_1799">
<rect width="18" height="18" fill="white" transform="translate(14.3281 13)"/>
</clipPath>
</defs>
</svg>
