<svg width="280" height="70" viewBox="0 0 280 70" fill="none" xmlns="http://www.w3.org/2000/svg">
<rect y="0.501953" width="280" height="68.9958" rx="34.4979" fill="white"/>
<path d="M56.6876 34.9999C56.6876 22.5746 46.6839 12.502 34.3438 12.502C22.0037 12.502 12 22.5746 12 34.9999C12 47.4251 22.0037 57.4978 34.3438 57.4978C46.6839 57.4978 56.6876 47.4251 56.6876 34.9999Z" fill="#727883"/>
<path d="M38.7359 25.7249C39.9582 25.7249 40.9472 26.7207 40.9472 27.9514V42.0434C40.9472 43.2741 39.9582 44.27 38.7359 44.27C37.5137 44.27 36.5247 43.2741 36.5247 42.0434V27.9514C36.5247 26.7207 37.5137 25.7249 38.7359 25.7249Z" fill="white"/>
<path d="M29.9515 25.725C31.1738 25.725 32.1628 26.7208 32.1628 27.9515V42.0435C32.1628 43.2742 31.1738 44.2701 29.9515 44.2701C28.7292 44.2701 27.7402 43.2742 27.7402 42.0435V27.9515C27.7402 26.7208 28.7292 25.725 29.9515 25.725Z" fill="white"/>
<g opacity="0.4">
<path d="M69.8071 39.1993C69.1913 39.1993 68.6875 38.6967 68.6875 38.072V31.9231C68.6875 31.3031 69.1867 30.7958 69.8071 30.7958C70.4276 30.7958 70.9268 31.2984 70.9268 31.9231V38.072C70.9268 38.692 70.4276 39.1993 69.8071 39.1993Z" fill="#7F56D9"/>
<path d="M74.5828 39.2933C73.967 39.2933 73.4631 38.7907 73.4631 38.166V31.8293C73.4631 31.2092 73.9623 30.7019 74.5828 30.7019C75.2032 30.7019 75.7024 31.2045 75.7024 31.8293V38.166C75.7024 38.786 75.2032 39.2933 74.5828 39.2933Z" fill="#7F56D9"/>
<path d="M79.3584 41.2661C78.7426 41.2661 78.2388 40.7635 78.2388 40.1388V29.8516C78.2388 29.2316 78.7379 28.7242 79.3584 28.7242C79.9789 28.7242 80.478 29.2269 80.478 29.8516V40.1388C80.478 40.7588 79.9789 41.2661 79.3584 41.2661Z" fill="#7F56D9"/>
<path d="M84.134 40.3642C83.5182 40.3642 83.0144 39.8616 83.0144 39.2369V30.7535C83.0144 30.1334 83.5136 29.6261 84.134 29.6261C84.7545 29.6261 85.2537 30.1287 85.2537 30.7535V39.2369C85.2537 39.8569 84.7545 40.3642 84.134 40.3642Z" fill="#7F56D9"/>
<path d="M88.9097 48.0585C88.2939 48.0585 87.79 47.5559 87.79 46.9311V23.0592C87.79 22.4392 88.2892 21.9319 88.9097 21.9319C89.5301 21.9319 90.0293 22.4345 90.0293 23.0592V46.9311C90.0293 47.5512 89.5301 48.0585 88.9097 48.0585Z" fill="#7F56D9"/>
<path d="M93.6851 43.2719C93.0693 43.2719 92.5654 42.7693 92.5654 42.1445V27.8505C92.5654 27.2305 93.0646 26.7231 93.6851 26.7231C94.3055 26.7231 94.8047 27.2258 94.8047 27.8505V42.1445C94.8047 42.7646 94.3055 43.2719 93.6851 43.2719Z" fill="#7F56D9"/>
<path d="M98.4607 46.2124C97.8449 46.2124 97.3411 45.7098 97.3411 45.085V24.91C97.3411 24.2899 97.8402 23.7826 98.4607 23.7826C99.0812 23.7826 99.5803 24.2852 99.5803 24.91V45.085C99.5803 45.7051 99.0812 46.2124 98.4607 46.2124Z" fill="#7F56D9"/>
<path d="M103.236 50.8204C102.621 50.8204 102.117 50.3178 102.117 49.6931V20.3018C102.117 19.6818 102.616 19.1744 103.236 19.1744C103.857 19.1744 104.356 19.6771 104.356 20.3018V49.6931C104.356 50.3131 103.857 50.8204 103.236 50.8204Z" fill="#7F56D9"/>
<path d="M108.012 49.9375C107.396 49.9375 106.892 49.4349 106.892 48.8101V21.1803C106.892 20.5603 107.392 20.053 108.012 20.053C108.632 20.053 109.132 20.5556 109.132 21.1803V48.8101C109.132 49.4302 108.632 49.9375 108.012 49.9375Z" fill="#7F56D9"/>
<path d="M112.788 47.7624C112.172 47.7624 111.668 47.2597 111.668 46.635V23.3503C111.668 22.7302 112.167 22.2229 112.788 22.2229C113.408 22.2229 113.907 22.7255 113.907 23.3503V46.635C113.907 47.255 113.408 47.7624 112.788 47.7624Z" fill="#7F56D9"/>
<path d="M117.563 47.3726C116.947 47.3726 116.444 46.8699 116.444 46.2452V23.7449C116.444 23.1249 116.943 22.6176 117.563 22.6176C118.184 22.6176 118.683 23.1202 118.683 23.7449V46.2452C118.683 46.8652 118.184 47.3726 117.563 47.3726Z" fill="#7F56D9"/>
<path d="M122.339 49.1859C121.723 49.1859 121.219 48.6833 121.219 48.0586V21.9319C121.219 21.3119 121.718 20.8046 122.339 20.8046C122.959 20.8046 123.459 21.3072 123.459 21.9319V48.0586C123.459 48.6786 122.959 49.1859 122.339 49.1859Z" fill="#7F56D9"/>
<path d="M127.114 47.4993C126.498 47.4993 125.995 46.9967 125.995 46.372V23.6227C125.995 23.0027 126.494 22.4954 127.114 22.4954C127.735 22.4954 128.234 22.998 128.234 23.6227V46.372C128.234 46.992 127.735 47.4993 127.114 47.4993Z" fill="#7F56D9"/>
<path d="M131.89 44.1081C131.274 44.1081 130.77 43.6055 130.77 42.9807V27.005C130.77 26.385 131.269 25.8777 131.89 25.8777C132.51 25.8777 133.01 26.3803 133.01 27.005V42.9807C133.01 43.6008 132.51 44.1081 131.89 44.1081Z" fill="#7F56D9"/>
<path d="M136.666 42.7974C136.05 42.7974 135.546 42.2948 135.546 41.67V28.3155C135.546 27.6954 136.045 27.1881 136.666 27.1881C137.286 27.1881 137.785 27.6907 137.785 28.3155V41.67C137.785 42.2901 137.286 42.7974 136.666 42.7974Z" fill="#7F56D9"/>
<path d="M141.441 46.1137C140.825 46.1137 140.322 45.6111 140.322 44.9864V25.0086C140.322 24.3885 140.821 23.8812 141.441 23.8812C142.062 23.8812 142.561 24.3838 142.561 25.0086V44.9864C142.561 45.6064 142.062 46.1137 141.441 46.1137Z" fill="#7F56D9"/>
<path d="M146.217 50.1441C145.601 50.1441 145.097 49.6414 145.097 49.0167V20.9736C145.097 20.3535 145.596 19.8462 146.217 19.8462C146.837 19.8462 147.336 20.3488 147.336 20.9736V49.0167C147.336 49.6367 146.837 50.1441 146.217 50.1441Z" fill="#7F56D9"/>
<path d="M150.992 55.2548C150.377 55.2548 149.873 54.7522 149.873 54.1275V15.8676C149.873 15.2475 150.372 14.7402 150.992 14.7402C151.613 14.7402 152.112 15.2428 152.112 15.8676V54.1322C152.112 54.7522 151.613 55.2595 150.992 55.2595V55.2548Z" fill="#7F56D9"/>
<path d="M155.768 52.582C155.152 52.582 154.648 52.0794 154.648 51.4546V18.5403C154.648 17.9203 155.148 17.413 155.768 17.413C156.389 17.413 156.888 17.9156 156.888 18.5403V51.4546C156.888 52.0747 156.389 52.582 155.768 52.582Z" fill="#7F56D9"/>
<path d="M160.543 44.7467C159.928 44.7467 159.424 44.2441 159.424 43.6194V26.3754C159.424 25.7554 159.923 25.248 160.543 25.248C161.164 25.248 161.663 25.7507 161.663 26.3754V43.6194C161.663 44.2394 161.164 44.7467 160.543 44.7467Z" fill="#7F56D9"/>
<path d="M165.319 42.9429C164.703 42.9429 164.199 42.4403 164.199 41.8156V28.1745C164.199 27.5544 164.699 27.0471 165.319 27.0471C165.94 27.0471 166.439 27.5497 166.439 28.1745V41.8156C166.439 42.4356 165.94 42.9429 165.319 42.9429Z" fill="#7F56D9"/>
<path d="M170.095 39.6266C169.479 39.6266 168.975 39.124 168.975 38.4993V31.4861C168.975 30.8661 169.474 30.3588 170.095 30.3588C170.715 30.3588 171.214 30.8614 171.214 31.4861V38.4993C171.214 39.1193 170.715 39.6266 170.095 39.6266Z" fill="#7F56D9"/>
<path d="M174.87 39.0301C174.255 39.0301 173.751 38.5274 173.751 37.9027V32.0827C173.751 31.4626 174.25 30.9553 174.87 30.9553C175.491 30.9553 175.99 31.4579 175.99 32.0827V37.9027C175.99 38.5227 175.491 39.0301 174.87 39.0301Z" fill="#BEC1C5"/>
<path d="M179.646 41.0453C179.03 41.0453 178.526 40.5427 178.526 39.9179V30.0723C178.526 29.4523 179.026 28.9449 179.646 28.9449C180.266 28.9449 180.766 29.4476 180.766 30.0723V39.9179C180.766 40.538 180.266 41.0453 179.646 41.0453Z" fill="#BEC1C5"/>
<path d="M184.422 37.9405C183.806 37.9405 183.302 37.4378 183.302 36.8131V33.1821C183.302 32.562 183.801 32.0547 184.422 32.0547C185.042 32.0547 185.541 32.5573 185.541 33.1821V36.8131C185.541 37.4331 185.042 37.9405 184.422 37.9405Z" fill="#BEC1C5"/>
<path d="M189.197 36.8036C188.581 36.8036 188.078 36.301 188.078 35.6762V34.314C188.078 33.694 188.577 33.1866 189.197 33.1866C189.818 33.1866 190.317 33.6893 190.317 34.314V35.6762C190.317 36.2963 189.818 36.8036 189.197 36.8036Z" fill="#BEC1C5"/>
<path d="M193.973 40.7493C193.357 40.7493 192.853 40.2467 192.853 39.622V30.3682C192.853 29.7482 193.352 29.2408 193.973 29.2408C194.593 29.2408 195.093 29.7435 195.093 30.3682V39.622C195.093 40.242 194.593 40.7493 193.973 40.7493Z" fill="#BEC1C5"/>
<path d="M198.748 43.1873C198.132 43.1873 197.629 42.6847 197.629 42.0599V27.9303C197.629 27.3103 198.128 26.803 198.748 26.803C199.369 26.803 199.868 27.3056 199.868 27.9303V42.0599C199.868 42.68 199.369 43.1873 198.748 43.1873Z" fill="#BEC1C5"/>
<path d="M203.524 48.7067C202.908 48.7067 202.404 48.204 202.404 47.5793V22.4109C202.404 21.7909 202.903 21.2836 203.524 21.2836C204.144 21.2836 204.644 21.7862 204.644 22.4109V47.5793C204.644 48.1993 204.144 48.7067 203.524 48.7067Z" fill="#BEC1C5"/>
<path d="M208.3 47.086C207.684 47.086 207.18 46.5834 207.18 45.9587V24.0362C207.18 23.4161 207.679 22.9088 208.3 22.9088C208.92 22.9088 209.419 23.4114 209.419 24.0362V45.9587C209.419 46.5787 208.92 47.086 208.3 47.086Z" fill="#BEC1C5"/>
<path d="M213.075 48.871C212.459 48.871 211.956 48.3684 211.956 47.7436V22.2511C211.956 21.6311 212.455 21.1238 213.075 21.1238C213.696 21.1238 214.195 21.6264 214.195 22.2511V47.7436C214.195 48.3637 213.696 48.871 213.075 48.871Z" fill="#BEC1C5"/>
<path d="M217.851 51.7552C217.235 51.7552 216.731 51.2525 216.731 50.6278V19.367C216.731 18.7469 217.23 18.2396 217.851 18.2396C218.471 18.2396 218.97 18.7422 218.97 19.367V50.6278C218.97 51.2478 218.471 51.7552 217.851 51.7552Z" fill="#BEC1C5"/>
<path d="M222.626 48.641C222.011 48.641 221.507 48.1384 221.507 47.5137V22.4769C221.507 21.8568 222.006 21.3495 222.626 21.3495C223.247 21.3495 223.746 21.8521 223.746 22.4769V47.5137C223.746 48.1337 223.247 48.641 222.626 48.641Z" fill="#BEC1C5"/>
<path d="M227.402 45.1649C226.786 45.1649 226.282 44.6623 226.282 44.0375V25.9574C226.282 25.3374 226.782 24.8301 227.402 24.8301C228.023 24.8301 228.522 25.3327 228.522 25.9574V44.0375C228.522 44.6576 228.023 45.1649 227.402 45.1649Z" fill="#BEC1C5"/>
<path d="M232.177 41.2521C231.562 41.2521 231.058 40.7495 231.058 40.1247V29.8704C231.058 29.2504 231.557 28.743 232.177 28.743C232.798 28.743 233.297 29.2457 233.297 29.8704V40.1247C233.297 40.7448 232.798 41.2521 232.177 41.2521Z" fill="#BEC1C5"/>
<path d="M236.953 50.5197C236.337 50.5197 235.833 50.0171 235.833 49.3924V20.6023C235.833 19.9823 236.333 19.475 236.953 19.475C237.574 19.475 238.073 19.9776 238.073 20.6023V49.3924C238.073 50.0124 237.574 50.5197 236.953 50.5197Z" fill="#BEC1C5"/>
<path d="M241.729 53.1974C241.113 53.1974 240.609 52.6948 240.609 52.0701V17.9251C240.609 17.305 241.108 16.7977 241.729 16.7977C242.349 16.7977 242.848 17.3003 242.848 17.9251V52.0701C242.848 52.6901 242.349 53.1974 241.729 53.1974Z" fill="#BEC1C5"/>
<path d="M246.504 54.0147C245.889 54.0147 245.385 53.5121 245.385 52.8874V17.1077C245.385 16.4877 245.884 15.9803 246.504 15.9803C247.125 15.9803 247.624 16.483 247.624 17.1077V52.8921C247.624 53.5121 247.125 54.0194 246.504 54.0194V54.0147Z" fill="#BEC1C5"/>
<path d="M251.28 46.2641C250.664 46.2641 250.16 45.7615 250.16 45.1367V24.8583C250.16 24.2383 250.66 23.731 251.28 23.731C251.9 23.731 252.4 24.2336 252.4 24.8583V45.1367C252.4 45.7568 251.9 46.2641 251.28 46.2641Z" fill="#BEC1C5"/>
<path d="M256.056 39.1897C255.44 39.1897 254.936 38.6871 254.936 38.0624V31.9277C254.936 31.3076 255.435 30.8003 256.056 30.8003C256.676 30.8003 257.175 31.3029 257.175 31.9277V38.0624C257.175 38.6824 256.676 39.1897 256.056 39.1897Z" fill="#BEC1C5"/>
<path d="M260.831 40.7587C260.216 40.7587 259.712 40.2561 259.712 39.6314V30.3588C259.712 29.7388 260.211 29.2314 260.831 29.2314C261.452 29.2314 261.951 29.7341 261.951 30.3588V39.6314C261.951 40.2514 261.452 40.7587 260.831 40.7587Z" fill="#BEC1C5"/>
<path d="M265.607 40.5663C264.991 40.5663 264.487 40.0637 264.487 39.4389V30.5516C264.487 29.9315 264.986 29.4242 265.607 29.4242C266.227 29.4242 266.727 29.9268 266.727 30.5516V39.4389C266.727 40.059 266.227 40.5663 265.607 40.5663Z" fill="#BEC1C5"/>
</g>
</svg>
