<svg width="37" height="35" viewBox="0 0 37 35" fill="none" xmlns="http://www.w3.org/2000/svg">
<rect y="0.227051" width="36.3636" height="33.9091" rx="16.9545" fill="#F4F5F5"/>
<path d="M18.1816 15.9543V20.8634M15.7271 18.4089H20.6361M24.7273 24.1361C25.1613 24.1361 25.5775 23.9637 25.8844 23.6569C26.1912 23.35 26.3636 22.9338 26.3636 22.4998V14.318C26.3636 13.884 26.1912 13.4678 25.8844 13.1609C25.5775 12.854 25.1613 12.6816 24.7273 12.6816H18.2636C17.99 12.6843 17.72 12.6183 17.4784 12.4896C17.2369 12.361 17.0314 12.1738 16.8809 11.9452L16.2182 10.9634C16.0692 10.7372 15.8663 10.5514 15.6279 10.4229C15.3894 10.2944 15.1227 10.2271 14.8518 10.2271H11.6364C11.2024 10.2271 10.7862 10.3995 10.4793 10.7063C10.1724 11.0132 10 11.4294 10 11.8634V22.4998C10 22.9338 10.1724 23.35 10.4793 23.6569C10.7862 23.9637 11.2024 24.1361 11.6364 24.1361H24.7273Z" stroke="#727883" stroke-width="2" stroke-linecap="round" stroke-linejoin="round"/>
</svg>
