<svg width="19" height="17" viewBox="0 0 19 17" fill="none" xmlns="http://www.w3.org/2000/svg">
<path d="M16 15.4466C16.442 15.4466 16.8659 15.271 17.1785 14.9584C17.4911 14.6459 17.6667 14.2219 17.6667 13.7799V5.44657C17.6667 5.00455 17.4911 4.58062 17.1785 4.26806C16.8659 3.9555 16.442 3.77991 16 3.77991H9.41667C9.13793 3.78264 8.86296 3.71542 8.61692 3.58439C8.37088 3.45336 8.16163 3.26272 8.00833 3.02991L7.33333 2.02991C7.18158 1.79947 6.97498 1.61031 6.73208 1.4794C6.48919 1.3485 6.21759 1.27995 5.94167 1.27991H2.66667C2.22464 1.27991 1.80072 1.4555 1.48816 1.76806C1.17559 2.08062 1 2.50455 1 2.94657V13.7799C1 14.2219 1.17559 14.6459 1.48816 14.9584C1.80072 15.271 2.22464 15.4466 2.66667 15.4466H16Z" stroke="currentColor" stroke-width="1.66667" stroke-linecap="round" stroke-linejoin="round"/>
</svg>
