<svg width="19" height="16" viewBox="0 0 19 16" fill="none" xmlns="http://www.w3.org/2000/svg">
<path d="M9.16602 0.5C9.62602 0.500132 9.9998 0.87302 10 1.33301V3.83398H14.166C15.5466 3.83416 16.666 4.95338 16.666 6.33398V8.83398H17.5C17.96 8.83429 18.333 9.20695 18.333 9.66699C18.3328 10.1269 17.9599 10.4997 17.5 10.5H16.666V13C16.6658 14.3804 15.5465 15.4998 14.166 15.5H4.16602C2.78554 15.4999 1.66621 14.3805 1.66602 13V10.5H0.833008C0.372893 10.5 0.000197736 10.1271 0 9.66699C0 9.20675 0.372771 8.83398 0.833008 8.83398H1.66602V6.33398C1.66602 4.95335 2.78542 3.83412 4.16602 3.83398H8.33301V2.16602H5.83301C5.37277 2.16602 5 1.79325 5 1.33301C5.0002 0.872939 5.37289 0.5 5.83301 0.5H9.16602ZM4.16602 5.5C3.70589 5.50013 3.33203 5.87383 3.33203 6.33398V9.64941C3.33215 9.65514 3.33301 9.66124 3.33301 9.66699C3.33301 9.67254 3.33214 9.67807 3.33203 9.68359V13C3.33223 13.46 3.70601 13.8339 4.16602 13.834H14.166C14.626 13.8338 14.9988 13.46 14.999 13V6.33398C14.999 5.87386 14.6261 5.50018 14.166 5.5H4.16602ZM6.66602 8C7.12613 8 7.49883 8.37294 7.49902 8.83301V10.5C7.49885 10.9601 7.12614 11.333 6.66602 11.333C6.20589 11.333 5.83318 10.9601 5.83301 10.5V8.83301C5.83321 8.37294 6.2059 8 6.66602 8ZM11.666 8C12.1261 8 12.4988 8.37294 12.499 8.83301V10.5C12.4988 10.9601 12.1261 11.333 11.666 11.333C11.2059 11.333 10.8332 10.9601 10.833 10.5V8.83301C10.8332 8.37294 11.2059 8 11.666 8Z" fill="#727883"/>
</svg>
