<svg width="37" height="37" viewBox="0 0 37 37" fill="none" xmlns="http://www.w3.org/2000/svg">
<rect x="0.636475" width="36.3635" height="36.3633" rx="18.1816" fill="#F4F5F5"/>
<path d="M21.2727 12.4549L24.5454 15.7276M26.3242 13.9374C26.7568 13.5049 26.9999 12.9183 27 12.3066C27 11.695 26.7571 11.1083 26.3246 10.6757C25.8922 10.2431 25.3056 10.0001 24.6939 10C24.0822 9.99992 23.4955 10.2428 23.063 10.6753L12.1435 21.5972C11.9535 21.7866 11.8131 22.0198 11.7344 22.2763L10.6536 25.837C10.6325 25.9078 10.6309 25.983 10.649 26.0546C10.6671 26.1261 10.7043 26.1915 10.7565 26.2437C10.8088 26.2959 10.8742 26.3329 10.9458 26.3509C11.0174 26.3689 11.0926 26.3672 11.1633 26.3459L14.7249 25.266C14.9811 25.188 15.2143 25.0484 15.404 24.8593L26.3242 13.9374Z" stroke="#727883" stroke-width="2" stroke-linecap="round" stroke-linejoin="round"/>
</svg>
