<svg width="18" height="18" viewBox="0 0 18 18" fill="none" xmlns="http://www.w3.org/2000/svg">
<path d="M13.3335 16.5V10.6667C13.3335 10.4457 13.2457 10.2337 13.0894 10.0775C12.9331 9.92117 12.7211 9.83337 12.5001 9.83337H5.83346C5.61244 9.83337 5.40048 9.92117 5.2442 10.0775C5.08792 10.2337 5.00012 10.4457 5.00012 10.6667V16.5M5.00012 1.5V4.83333C5.00012 5.05435 5.08792 5.26631 5.2442 5.42259C5.40048 5.57887 5.61244 5.66667 5.83346 5.66667H11.6668M11.8334 1.5C12.273 1.50626 12.6924 1.68598 13.0001 2L16.1667 5.16667C16.4808 5.47438 16.6605 5.89372 16.6667 6.33333V14.8333C16.6667 15.2754 16.4912 15.6993 16.1786 16.0118C15.866 16.3244 15.4421 16.5 15.0001 16.5H3.33341C2.89139 16.5 2.46746 16.3244 2.1549 16.0118C1.84234 15.6993 1.66675 15.2754 1.66675 14.8333V3.16667C1.66675 2.72464 1.84234 2.30072 2.1549 1.98816C2.46746 1.67559 2.89139 1.5 3.33341 1.5H11.8334Z" stroke="#727883" stroke-width="1.66667" stroke-linecap="round" stroke-linejoin="round"/>
</svg>
