<svg width="20" height="21" viewBox="0 0 20 21" fill="none" xmlns="http://www.w3.org/2000/svg">
<path d="M3.33337 16.4033V3.90328C3.33337 3.35075 3.55287 2.82084 3.94357 2.43014C4.33427 2.03944 4.86417 1.81995 5.41671 1.81995H15.8334C16.0544 1.81995 16.2663 1.90774 16.4226 2.06402C16.5789 2.2203 16.6667 2.43227 16.6667 2.65328V17.6533C16.6667 17.8743 16.5789 18.0863 16.4226 18.2425C16.2663 18.3988 16.0544 18.4866 15.8334 18.4866H5.41671C4.86417 18.4866 4.33427 18.2671 3.94357 17.8764C3.55287 17.4857 3.33337 16.9558 3.33337 16.4033ZM3.33337 16.4033C3.33337 15.8507 3.55287 15.3208 3.94357 14.9301C4.33427 14.5394 4.86417 14.3199 5.41671 14.3199H16.6667" stroke="#9467F1" stroke-width="1.45833" stroke-linecap="round" stroke-linejoin="round"/>
<path d="M6.66663 9.31995H13.3333" stroke="#9467F1" stroke-width="1.45833" stroke-linecap="round" stroke-linejoin="round"/>
<path d="M6.66663 5.98669H11.6666" stroke="#9467F1" stroke-width="1.45833" stroke-linecap="round" stroke-linejoin="round"/>
</svg>
