<svg width="20" height="21" viewBox="0 0 20 21" fill="none" xmlns="http://www.w3.org/2000/svg">
<path d="M16.6666 16.82C17.1087 16.82 17.5326 16.6444 17.8451 16.3318C18.1577 16.0193 18.3333 15.5953 18.3333 15.1533V6.81999C18.3333 6.37796 18.1577 5.95404 17.8451 5.64148C17.5326 5.32891 17.1087 5.15332 16.6666 5.15332H10.0833C9.80455 5.15605 9.52958 5.08883 9.28354 4.9578C9.0375 4.82678 8.82826 4.63613 8.67496 4.40332L7.99996 3.40332C7.8482 3.17288 7.6416 2.98372 7.39871 2.85282C7.15581 2.72192 6.88422 2.65337 6.60829 2.65332H3.33329C2.89127 2.65332 2.46734 2.82891 2.15478 3.14148C1.84222 3.45404 1.66663 3.87796 1.66663 4.31999V15.1533C1.66663 15.5953 1.84222 16.0193 2.15478 16.3318C2.46734 16.6444 2.89127 16.82 3.33329 16.82H16.6666Z" stroke="#9467F1" stroke-width="1.45833" stroke-linecap="round" stroke-linejoin="round"/>
</svg>
