<svg width="20" height="21" viewBox="0 0 20 21" fill="none" xmlns="http://www.w3.org/2000/svg">
<path d="M10.1833 1.81995H9.81667C9.37464 1.81995 8.95072 1.99554 8.63816 2.3081C8.3256 2.62066 8.15 3.04459 8.15 3.48661V3.63661C8.1497 3.92888 8.07255 4.21594 7.92628 4.46898C7.78002 4.72202 7.56978 4.93214 7.31667 5.07828L6.95834 5.28661C6.70497 5.43289 6.41756 5.5099 6.125 5.5099C5.83244 5.5099 5.54503 5.43289 5.29167 5.28661L5.16667 5.21995C4.78422 4.99933 4.32987 4.93948 3.90334 5.05354C3.47681 5.16759 3.11296 5.44623 2.89167 5.82828L2.70833 6.14495C2.48772 6.52739 2.42787 6.98175 2.54192 7.40828C2.65598 7.83481 2.93461 8.19865 3.31667 8.41995L3.44167 8.50328C3.69356 8.64871 3.90302 8.85752 4.04921 9.10897C4.1954 9.36042 4.27325 9.64576 4.275 9.93661V10.3616C4.27617 10.6553 4.19971 10.9441 4.05337 11.1987C3.90703 11.4533 3.69601 11.6648 3.44167 11.8116L3.31667 11.8866C2.93461 12.1079 2.65598 12.4718 2.54192 12.8983C2.42787 13.3248 2.48772 13.7792 2.70833 14.1616L2.89167 14.4783C3.11296 14.8603 3.47681 15.139 3.90334 15.253C4.32987 15.3671 4.78422 15.3072 5.16667 15.0866L5.29167 15.0199C5.54503 14.8737 5.83244 14.7967 6.125 14.7967C6.41756 14.7967 6.70497 14.8737 6.95834 15.0199L7.31667 15.2283C7.56978 15.3744 7.78002 15.5845 7.92628 15.8376C8.07255 16.0906 8.1497 16.3777 8.15 16.6699V16.8199C8.15 17.262 8.3256 17.6859 8.63816 17.9985C8.95072 18.311 9.37464 18.4866 9.81667 18.4866H10.1833C10.6254 18.4866 11.0493 18.311 11.3618 17.9985C11.6744 17.6859 11.85 17.262 11.85 16.8199V16.6699C11.8503 16.3777 11.9275 16.0906 12.0737 15.8376C12.22 15.5845 12.4302 15.3744 12.6833 15.2283L13.0417 15.0199C13.295 14.8737 13.5824 14.7967 13.875 14.7967C14.1676 14.7967 14.455 14.8737 14.7083 15.0199L14.8333 15.0866C15.2158 15.3072 15.6701 15.3671 16.0967 15.253C16.5232 15.139 16.887 14.8603 17.1083 14.4783L17.2917 14.1533C17.5123 13.7708 17.5721 13.3165 17.4581 12.8899C17.344 12.4634 17.0654 12.0996 16.6833 11.8783L16.5583 11.8116C16.304 11.6648 16.093 11.4533 15.9466 11.1987C15.8003 10.9441 15.7238 10.6553 15.725 10.3616V9.94495C15.7238 9.65126 15.8003 9.36249 15.9466 9.10786C16.093 8.85323 16.304 8.64179 16.5583 8.49495L16.6833 8.41995C17.0654 8.19865 17.344 7.83481 17.4581 7.40828C17.5721 6.98175 17.5123 6.52739 17.2917 6.14495L17.1083 5.82828C16.887 5.44623 16.5232 5.16759 16.0967 5.05354C15.6701 4.93948 15.2158 4.99933 14.8333 5.21995L14.7083 5.28661C14.455 5.43289 14.1676 5.5099 13.875 5.5099C13.5824 5.5099 13.295 5.43289 13.0417 5.28661L12.6833 5.07828C12.4302 4.93214 12.22 4.72202 12.0737 4.46898C11.9275 4.21594 11.8503 3.92888 11.85 3.63661V3.48661C11.85 3.04459 11.6744 2.62066 11.3618 2.3081C11.0493 1.99554 10.6254 1.81995 10.1833 1.81995Z" stroke="#9467F1" stroke-width="1.45833" stroke-linecap="round" stroke-linejoin="round"/>
<path d="M10 12.6533C11.3807 12.6533 12.5 11.534 12.5 10.1533C12.5 8.77261 11.3807 7.65332 10 7.65332C8.61929 7.65332 7.5 8.77261 7.5 10.1533C7.5 11.534 8.61929 12.6533 10 12.6533Z" stroke="#9467F1" stroke-width="1.45833" stroke-linecap="round" stroke-linejoin="round"/>
</svg>
