<svg width="20" height="21" viewBox="0 0 20 21" fill="none" xmlns="http://www.w3.org/2000/svg">
<path d="M17.5 10.1534C17.96 10.1534 18.3375 9.77921 18.2916 9.32171C18.0995 7.40852 17.2517 5.62063 15.8919 4.26114C14.5321 2.90166 12.744 2.05424 10.8308 1.86254C10.3725 1.81671 9.99915 2.19421 9.99915 2.65421V9.32088C9.99915 9.54189 10.0869 9.75385 10.2432 9.91013C10.3995 10.0664 10.6115 10.1542 10.8325 10.1542L17.5 10.1534Z" stroke="#9467F1" stroke-width="1.45833" stroke-linecap="round" stroke-linejoin="round"/>
<path d="M17.6751 13.3949C17.1449 14.6487 16.3157 15.7534 15.2599 16.6127C14.2042 17.4719 12.954 18.0595 11.6187 18.3239C10.2835 18.5884 8.90374 18.5217 7.60017 18.1298C6.29661 17.7378 5.10891 17.0325 4.1409 16.0755C3.1729 15.1185 2.45406 13.9389 2.04725 12.6399C1.64043 11.3409 1.55802 9.962 1.80722 8.62379C2.05641 7.28558 2.62963 6.02879 3.47676 4.96329C4.32388 3.89779 5.41912 3.05603 6.66672 2.5116" stroke="#9467F1" stroke-width="1.45833" stroke-linecap="round" stroke-linejoin="round"/>
</svg>
